<mxfile host="app.diagrams.net" modified="2021-07-12T05:22:08.855Z" agent="5.0 (Windows NT 10.0; Win64; x64) AppleWebKit/537.36 (KHTML, like Gecko) Chrome/91.0.4472.124 Safari/537.36" etag="fPxU88A_4ThB65BcAZ99" version="14.8.5" type="github">
  <diagram id="dqaZKvKSdflm3RaCMeF8" name="Page-1">
    <mxGraphModel dx="549" dy="495" grid="1" gridSize="10" guides="1" tooltips="1" connect="1" arrows="1" fold="1" page="1" pageScale="1" pageWidth="827" pageHeight="1169" math="0" shadow="0">
      <root>
        <mxCell id="0" />
        <mxCell id="1" parent="0" />
        <mxCell id="USypLiao99w2niG7M47V-1" value="Người dùng" style="swimlane;whiteSpace=wrap" parent="1" vertex="1">
          <mxGeometry x="164.5" y="128" width="280" height="842" as="geometry" />
        </mxCell>
        <mxCell id="USypLiao99w2niG7M47V-2" value="" style="ellipse;shape=startState;fillColor=#000000;strokeColor=#ff0000;" parent="USypLiao99w2niG7M47V-1" vertex="1">
          <mxGeometry x="100" y="40" width="30" height="30" as="geometry" />
        </mxCell>
        <mxCell id="USypLiao99w2niG7M47V-3" value="" style="edgeStyle=elbowEdgeStyle;elbow=horizontal;verticalAlign=bottom;endArrow=open;endSize=8;strokeColor=#FF0000;endFill=1;rounded=0" parent="USypLiao99w2niG7M47V-1" source="USypLiao99w2niG7M47V-2" target="USypLiao99w2niG7M47V-4" edge="1">
          <mxGeometry x="100" y="40" as="geometry">
            <mxPoint x="115" y="110" as="targetPoint" />
          </mxGeometry>
        </mxCell>
        <mxCell id="USypLiao99w2niG7M47V-4" value="Truy cập Fshop" style="" parent="USypLiao99w2niG7M47V-1" vertex="1">
          <mxGeometry x="60" y="110" width="110" height="50" as="geometry" />
        </mxCell>
        <mxCell id="USypLiao99w2niG7M47V-5" value="Nhấn button&#xa;thêm hàng vào giỏ" style="" parent="USypLiao99w2niG7M47V-1" vertex="1">
          <mxGeometry x="60" y="202" width="110" height="50" as="geometry" />
        </mxCell>
        <mxCell id="USypLiao99w2niG7M47V-6" value="" style="endArrow=open;strokeColor=#FF0000;endFill=1;rounded=0" parent="USypLiao99w2niG7M47V-1" source="USypLiao99w2niG7M47V-4" target="USypLiao99w2niG7M47V-5" edge="1">
          <mxGeometry relative="1" as="geometry" />
        </mxCell>
        <mxCell id="USypLiao99w2niG7M47V-8" value="Giao diện" style="swimlane;whiteSpace=wrap" parent="1" vertex="1">
          <mxGeometry x="444.5" y="128" width="280" height="842" as="geometry" />
        </mxCell>
        <mxCell id="USypLiao99w2niG7M47V-27" value="" style="edgeStyle=orthogonalEdgeStyle;rounded=0;orthogonalLoop=1;jettySize=auto;html=1;" parent="USypLiao99w2niG7M47V-8" source="USypLiao99w2niG7M47V-10" target="USypLiao99w2niG7M47V-12" edge="1">
          <mxGeometry relative="1" as="geometry" />
        </mxCell>
        <mxCell id="USypLiao99w2niG7M47V-10" value="Refresh lại trang" style="" parent="USypLiao99w2niG7M47V-8" vertex="1">
          <mxGeometry x="85" y="652" width="110" height="50" as="geometry" />
        </mxCell>
        <mxCell id="USypLiao99w2niG7M47V-12" value="" style="ellipse;shape=startState;fillColor=#000000;strokeColor=#ff0000;" parent="USypLiao99w2niG7M47V-8" vertex="1">
          <mxGeometry x="125" y="762" width="30" height="30" as="geometry" />
        </mxCell>
        <mxCell id="USypLiao99w2niG7M47V-13" value="" style="endArrow=open;strokeColor=#FF0000;endFill=1;rounded=0;exitX=0.5;exitY=1;exitDx=0;exitDy=0;entryX=0.5;entryY=0;entryDx=0;entryDy=0;" parent="USypLiao99w2niG7M47V-8" source="USypLiao99w2niG7M47V-10" target="USypLiao99w2niG7M47V-12" edge="1">
          <mxGeometry relative="1" as="geometry">
            <mxPoint x="135.5" y="572" as="sourcePoint" />
            <mxPoint x="135.5" y="614" as="targetPoint" />
          </mxGeometry>
        </mxCell>
        <mxCell id="USypLiao99w2niG7M47V-30" value="Thông báo &#xa;hêt hàng" style="" parent="USypLiao99w2niG7M47V-8" vertex="1">
          <mxGeometry x="85.5" y="284" width="110" height="50" as="geometry" />
        </mxCell>
        <mxCell id="jEJmMbxQXp3m3aQmkkZc-4" value="" style="endArrow=open;strokeColor=#FF0000;endFill=1;rounded=0;exitX=0;exitY=0.5;exitDx=0;exitDy=0;" edge="1" parent="USypLiao99w2niG7M47V-8" source="USypLiao99w2niG7M47V-30">
          <mxGeometry relative="1" as="geometry">
            <mxPoint x="145.5" y="352" as="sourcePoint" />
            <mxPoint x="140.5" y="732" as="targetPoint" />
            <Array as="points">
              <mxPoint x="35.5" y="309" />
              <mxPoint x="35.5" y="732" />
            </Array>
          </mxGeometry>
        </mxCell>
        <mxCell id="USypLiao99w2niG7M47V-14" value="Hệ thống" style="swimlane;whiteSpace=wrap" parent="1" vertex="1">
          <mxGeometry x="724.5" y="130" width="280" height="840" as="geometry" />
        </mxCell>
        <mxCell id="USypLiao99w2niG7M47V-15" value="Kiểm tra tồn tại&#xa;sp trong giỏ" style="rhombus;fillColor=#ffffc0;strokeColor=#ff0000;" parent="USypLiao99w2niG7M47V-14" vertex="1">
          <mxGeometry x="85" y="410" width="110" height="86" as="geometry" />
        </mxCell>
        <mxCell id="USypLiao99w2niG7M47V-26" value="Kiểm tra&#xa;số lượng tồn" style="rhombus;fillColor=#ffffc0;strokeColor=#ff0000;" parent="USypLiao99w2niG7M47V-14" vertex="1">
          <mxGeometry x="90" y="266" width="100" height="82" as="geometry" />
        </mxCell>
        <mxCell id="USypLiao99w2niG7M47V-22" value="Không tồn tại" style="text;html=1;align=center;verticalAlign=middle;resizable=0;points=[];autosize=1;strokeColor=none;fontStyle=2" parent="USypLiao99w2niG7M47V-14" vertex="1">
          <mxGeometry x="140.5" y="511" width="90" height="20" as="geometry" />
        </mxCell>
        <mxCell id="USypLiao99w2niG7M47V-28" value="" style="endArrow=open;strokeColor=#FF0000;endFill=1;rounded=0;exitX=0.5;exitY=1;exitDx=0;exitDy=0;entryX=0.5;entryY=0;entryDx=0;entryDy=0;" parent="USypLiao99w2niG7M47V-14" source="USypLiao99w2niG7M47V-26" target="USypLiao99w2niG7M47V-15" edge="1">
          <mxGeometry relative="1" as="geometry">
            <mxPoint x="115.5" y="350" as="sourcePoint" />
            <mxPoint x="115.5" y="392" as="targetPoint" />
          </mxGeometry>
        </mxCell>
        <mxCell id="USypLiao99w2niG7M47V-16" value="Tạo item sp &#xa;trong giỏ hàng" style="" parent="USypLiao99w2niG7M47V-14" vertex="1">
          <mxGeometry x="85" y="560" width="110" height="50" as="geometry" />
        </mxCell>
        <mxCell id="USypLiao99w2niG7M47V-17" value="" style="endArrow=open;strokeColor=#FF0000;endFill=1;rounded=0;exitX=0.5;exitY=1;exitDx=0;exitDy=0;entryX=0.5;entryY=0;entryDx=0;entryDy=0;" parent="USypLiao99w2niG7M47V-14" source="USypLiao99w2niG7M47V-15" target="USypLiao99w2niG7M47V-16" edge="1">
          <mxGeometry relative="1" as="geometry">
            <mxPoint x="143" y="434" as="sourcePoint" />
            <mxPoint x="146.5" y="542" as="targetPoint" />
          </mxGeometry>
        </mxCell>
        <mxCell id="USypLiao99w2niG7M47V-11" value="Tăng số lượng sp&#xa;lên 1 đơn vị" style="" parent="USypLiao99w2niG7M47V-14" vertex="1">
          <mxGeometry x="10.5" y="496" width="110" height="50" as="geometry" />
        </mxCell>
        <mxCell id="USypLiao99w2niG7M47V-21" value="" style="endArrow=open;strokeColor=#FF0000;endFill=1;rounded=0;exitX=0;exitY=0.5;exitDx=0;exitDy=0;entryX=0.5;entryY=0;entryDx=0;entryDy=0;" parent="USypLiao99w2niG7M47V-14" source="USypLiao99w2niG7M47V-15" target="USypLiao99w2niG7M47V-11" edge="1">
          <mxGeometry relative="1" as="geometry">
            <mxPoint x="-74.5" y="390" as="sourcePoint" />
            <mxPoint x="-84.5" y="455" as="targetPoint" />
            <Array as="points">
              <mxPoint x="65.5" y="455" />
            </Array>
          </mxGeometry>
        </mxCell>
        <mxCell id="jEJmMbxQXp3m3aQmkkZc-1" value="Giảm số lượng sp&#xa;tồn 1 đơn vị" style="" vertex="1" parent="USypLiao99w2niG7M47V-14">
          <mxGeometry x="10.5" y="650" width="110" height="50" as="geometry" />
        </mxCell>
        <mxCell id="USypLiao99w2niG7M47V-24" value="" style="endArrow=open;strokeColor=#FF0000;endFill=1;rounded=0;exitX=0.5;exitY=1;exitDx=0;exitDy=0;" parent="USypLiao99w2niG7M47V-14" source="USypLiao99w2niG7M47V-16" target="jEJmMbxQXp3m3aQmkkZc-1" edge="1">
          <mxGeometry relative="1" as="geometry">
            <mxPoint x="155.5" y="600" as="sourcePoint" />
            <mxPoint x="95.5" y="680" as="targetPoint" />
            <Array as="points">
              <mxPoint x="140.5" y="680" />
            </Array>
          </mxGeometry>
        </mxCell>
        <mxCell id="jEJmMbxQXp3m3aQmkkZc-2" value="" style="endArrow=open;strokeColor=#FF0000;endFill=1;rounded=0;exitX=0.5;exitY=1;exitDx=0;exitDy=0;entryX=0.5;entryY=0;entryDx=0;entryDy=0;" edge="1" parent="USypLiao99w2niG7M47V-14" source="USypLiao99w2niG7M47V-11" target="jEJmMbxQXp3m3aQmkkZc-1">
          <mxGeometry relative="1" as="geometry">
            <mxPoint x="55.5" y="610" as="sourcePoint" />
            <mxPoint x="55.5" y="674" as="targetPoint" />
          </mxGeometry>
        </mxCell>
        <mxCell id="jEJmMbxQXp3m3aQmkkZc-6" value="Đã tồn tại" style="text;html=1;align=center;verticalAlign=middle;resizable=0;points=[];autosize=1;strokeColor=none;fontStyle=2" vertex="1" parent="USypLiao99w2niG7M47V-14">
          <mxGeometry x="20.5" y="435" width="70" height="20" as="geometry" />
        </mxCell>
        <mxCell id="jEJmMbxQXp3m3aQmkkZc-7" value="Bằng 0" style="text;html=1;align=center;verticalAlign=middle;resizable=0;points=[];autosize=1;strokeColor=none;fontStyle=2" vertex="1" parent="USypLiao99w2niG7M47V-14">
          <mxGeometry x="25.5" y="280" width="50" height="20" as="geometry" />
        </mxCell>
        <mxCell id="jEJmMbxQXp3m3aQmkkZc-8" value="Lớn hơn 0" style="text;html=1;align=center;verticalAlign=middle;resizable=0;points=[];autosize=1;strokeColor=none;fontStyle=2" vertex="1" parent="USypLiao99w2niG7M47V-14">
          <mxGeometry x="140.5" y="370" width="70" height="20" as="geometry" />
        </mxCell>
        <mxCell id="USypLiao99w2niG7M47V-18" value="" style="endArrow=open;strokeColor=#FF0000;endFill=1;rounded=0;entryX=0.5;entryY=0;entryDx=0;entryDy=0;exitX=1;exitY=0.5;exitDx=0;exitDy=0;" parent="1" source="USypLiao99w2niG7M47V-5" target="USypLiao99w2niG7M47V-26" edge="1">
          <mxGeometry relative="1" as="geometry">
            <mxPoint x="334.5" y="478" as="sourcePoint" />
            <mxPoint x="530" y="355" as="targetPoint" />
            <Array as="points">
              <mxPoint x="865" y="355" />
            </Array>
          </mxGeometry>
        </mxCell>
        <mxCell id="USypLiao99w2niG7M47V-29" value="" style="endArrow=open;strokeColor=#FF0000;endFill=1;rounded=0;exitX=0;exitY=0.5;exitDx=0;exitDy=0;entryX=1;entryY=0.5;entryDx=0;entryDy=0;" parent="1" source="USypLiao99w2niG7M47V-26" target="USypLiao99w2niG7M47V-30" edge="1">
          <mxGeometry relative="1" as="geometry">
            <mxPoint x="680" y="380" as="sourcePoint" />
            <mxPoint x="640" y="421" as="targetPoint" />
            <Array as="points" />
          </mxGeometry>
        </mxCell>
        <mxCell id="jEJmMbxQXp3m3aQmkkZc-5" value="" style="endArrow=open;strokeColor=#FF0000;endFill=1;rounded=0;exitX=0;exitY=0.5;exitDx=0;exitDy=0;" edge="1" parent="1" source="jEJmMbxQXp3m3aQmkkZc-1" target="USypLiao99w2niG7M47V-10">
          <mxGeometry relative="1" as="geometry">
            <mxPoint x="824.5" y="447" as="sourcePoint" />
            <mxPoint x="650" y="447" as="targetPoint" />
            <Array as="points" />
          </mxGeometry>
        </mxCell>
      </root>
    </mxGraphModel>
  </diagram>
</mxfile>
